<svg width="31" height="26" viewBox="0 0 31 26" fill="none" xmlns="http://www.w3.org/2000/svg">
<path d="M27.655 3.76249C26.9527 3.12375 26.1189 2.61705 25.2011 2.27135C24.2834 1.92565 23.2997 1.74771 22.3063 1.74771C21.3128 1.74771 20.3291 1.92565 19.4114 2.27135C18.4936 2.61705 17.6598 3.12375 16.9575 3.76249L15.5 5.08749L14.0425 3.76249C12.6239 2.47288 10.6999 1.74838 8.69375 1.74838C6.68758 1.74838 4.76358 2.47288 3.345 3.76249C1.92642 5.05211 1.12947 6.8012 1.12947 8.62499C1.12947 10.4488 1.92642 12.1979 3.345 13.4875L15.5 24.5375L27.655 13.4875C28.3576 12.849 28.915 12.091 29.2953 11.2567C29.6755 10.4224 29.8713 9.5281 29.8713 8.62499C29.8713 7.72188 29.6755 6.82762 29.2953 5.9933C28.915 5.15897 28.3576 4.40094 27.655 3.76249Z" fill="#FF3535" stroke="#FF3535" stroke-width="2" stroke-linecap="round" stroke-linejoin="round"/>
</svg>
