<svg width="33" height="30" viewBox="0 0 33 30" fill="none" xmlns="http://www.w3.org/2000/svg">
<path d="M28.655 5.76252C27.9527 5.12378 27.1189 4.61708 26.2011 4.27138C25.2834 3.92568 24.2997 3.74774 23.3063 3.74774C22.3128 3.74774 21.3291 3.92568 20.4114 4.27138C19.4936 4.61708 18.6598 5.12378 17.9575 5.76252L16.5 7.08752L15.0425 5.76252C13.6239 4.47291 11.6999 3.74841 9.69375 3.74841C7.68758 3.74841 5.76358 4.47291 4.345 5.76252C2.92642 7.05214 2.12947 8.80123 2.12947 10.625C2.12947 12.4488 2.92642 14.1979 4.345 15.4875L16.5 26.5375L28.655 15.4875C29.3576 14.8491 29.915 14.091 30.2953 13.2567C30.6755 12.4224 30.8713 11.5281 30.8713 10.625C30.8713 9.72191 30.6755 8.82765 30.2953 7.99333C29.915 7.15901 29.3576 6.40097 28.655 5.76252Z" stroke="white" stroke-width="2" stroke-linecap="round" stroke-linejoin="round"/>
</svg>
