<svg width="31" height="26" viewBox="0 0 31 26" fill="none" xmlns="http://www.w3.org/2000/svg">
<path d="M27.655 3.76252C26.9527 3.12378 26.1189 2.61708 25.2011 2.27138C24.2834 1.92568 23.2997 1.74774 22.3063 1.74774C21.3128 1.74774 20.3291 1.92568 19.4114 2.27138C18.4936 2.61708 17.6598 3.12378 16.9575 3.76252L15.5 5.08752L14.0425 3.76252C12.6239 2.47291 10.6999 1.74841 8.69375 1.74841C6.68758 1.74841 4.76358 2.47291 3.345 3.76252C1.92642 5.05214 1.12947 6.80123 1.12947 8.62502C1.12947 10.4488 1.92642 12.1979 3.345 13.4875L15.5 24.5375L27.655 13.4875C28.3576 12.8491 28.915 12.091 29.2953 11.2567C29.6755 10.4224 29.8713 9.52813 29.8713 8.62502C29.8713 7.72191 29.6755 6.82765 29.2953 5.99333C28.915 5.15901 28.3576 4.40097 27.655 3.76252Z" stroke="#FF3535" stroke-width="2" stroke-linecap="round" stroke-linejoin="round"/>
</svg>
