<svg width="33" height="30" viewBox="0 0 33 30" fill="none" xmlns="http://www.w3.org/2000/svg">
<path d="M28.655 5.76249C27.9527 5.12375 27.1189 4.61705 26.2011 4.27135C25.2834 3.92565 24.2997 3.74771 23.3063 3.74771C22.3128 3.74771 21.3291 3.92565 20.4114 4.27135C19.4936 4.61705 18.6598 5.12375 17.9575 5.76249L16.5 7.08749L15.0425 5.76249C13.6239 4.47288 11.6999 3.74838 9.69375 3.74838C7.68758 3.74838 5.76358 4.47288 4.345 5.76249C2.92642 7.05211 2.12947 8.8012 2.12947 10.625C2.12947 12.4488 2.92642 14.1979 4.345 15.4875L16.5 26.5375L28.655 15.4875C29.3576 14.849 29.915 14.091 30.2953 13.2567C30.6755 12.4224 30.8713 11.5281 30.8713 10.625C30.8713 9.72188 30.6755 8.82762 30.2953 7.9933C29.915 7.15897 29.3576 6.40094 28.655 5.76249Z" fill="white" stroke="white" stroke-width="2" stroke-linecap="round" stroke-linejoin="round"/>
</svg>
