<svg width="61" height="55" viewBox="0 0 61 55" fill="none" xmlns="http://www.w3.org/2000/svg">
<path d="M54.3408 23.7158H56.9079C57.3221 23.7158 57.6579 24.0516 57.6579 24.4658V33.1122C57.6579 33.5264 57.3221 33.8622 56.9079 33.8622H54.3408V23.7158Z" fill="#F79744"/>
<path d="M7.21924 23.7158H4.65217C4.23795 23.7158 3.90217 24.0516 3.90217 24.4658V33.1122C3.90217 33.5264 4.23795 33.8622 4.65217 33.8622H7.21924V23.7158Z" fill="#F79744"/>
<path d="M30.78 0.104248C38.5655 0.104582 44.8775 6.43733 44.8777 14.2498C44.8776 17.6423 43.6861 20.7559 41.7019 23.1931C40.025 25.6376 37.7112 29.153 35.7283 32.1404C34.6964 33.695 33.7534 35.1077 33.0388 36.1462C32.6821 36.6646 32.379 37.0948 32.1492 37.4041C32.0349 37.5578 31.9338 37.6881 31.8513 37.7859C31.8104 37.8343 31.7683 37.8818 31.7283 37.9216C31.7004 37.9495 31.6309 38.017 31.5388 38.0632C30.8952 38.3862 30.2557 38.2109 29.9724 38.0623V38.0632L29.9695 38.0613C29.9656 38.0592 29.9606 38.0574 29.9568 38.0554V38.0535C29.8769 38.0101 29.8137 37.954 29.782 37.9236C29.7389 37.8821 29.6938 37.8324 29.6501 37.782C29.562 37.6802 29.4557 37.5452 29.3367 37.3875C29.0972 37.0698 28.7849 36.6302 28.4207 36.1033C27.6906 35.0472 26.7349 33.6168 25.698 32.0525C23.6208 28.9186 21.2125 25.2409 19.5876 22.8884L19.0457 22.1042H19.0535C17.556 19.8574 16.6825 17.1557 16.6824 14.2498C16.6826 6.43712 22.9943 0.104248 30.78 0.104248ZM30.78 6.25073C26.4844 6.25073 23.0017 9.74588 23.0017 14.0564C23.0019 18.3667 26.4845 21.8611 30.78 21.8611C35.0755 21.861 38.5581 18.3667 38.5583 14.0564C38.5583 9.74592 35.0756 6.25079 30.78 6.25073Z" fill="#218BE7"/>
<rect x="13.365" y="26.0574" width="34.2439" height="4.29268" fill="#228BEA"/>
<rect width="34.2439" height="4.29268" transform="matrix(-1 0 0 1 48.1948 26.0574)" fill="#228BEA"/>
<rect x="48.4871" y="19.4241" width="5.56097" height="17.2683" rx="1.5" fill="#F79744"/>
<rect width="5.56097" height="17.2683" rx="1.5" transform="matrix(-1 0 0 1 13.0728 19.4241)" fill="#F79744"/>
<path d="M57.172 40.5V42.5774H54.4403C54.6285 44.0086 55.5363 45.4644 57.859 46.1432L56.5177 48.1879C54.8902 47.7217 53.7942 46.7648 53.1318 45.5544C52.4366 46.8793 51.2834 47.9343 49.5495 48.4823L48.2083 46.4049C50.58 45.6934 51.5288 44.1149 51.7251 42.5774H48.8953V40.5H57.172ZM60.9996 39.7476V48.4169H58.3661V39.7476H60.9996ZM60.9996 48.9894V54.7144H50.6782V48.9894H60.9996ZM53.2626 51.034V52.6207H58.4315V51.034H53.2626Z" fill="#00514D"/>
<path d="M37.8474 49.1529C37.8474 50.2816 38.24 51.4348 39.3196 52.2445C40.4073 51.4021 40.8408 50.2407 40.8572 49.1529V48.8258H43.4253V49.1529C43.4253 50.7396 44.0632 52.13 46.1242 52.7352L44.8647 54.6163C43.4661 54.1664 42.5747 53.3322 42.0512 52.2445C41.5442 53.3486 40.6854 54.2728 39.3687 54.7635C37.9865 54.2809 37.1195 53.3813 36.6207 52.2935C36.0809 53.3404 35.2058 54.1664 33.8726 54.6163L32.5968 52.7352C34.6251 52.0645 35.2794 50.6251 35.2794 49.1529V48.8258H37.8474V49.1529ZM44.8483 39.7476V48.2206H42.2148V39.7476H44.8483ZM36.4898 40.4346C38.8779 40.4346 40.7263 41.9721 40.7263 44.1476C40.7263 46.2577 38.8779 47.8117 36.4898 47.8117C34.0853 47.8117 32.2369 46.2577 32.2533 44.1476C32.2369 41.9721 34.0853 40.4346 36.4898 40.4346ZM36.4898 42.6264C35.492 42.6264 34.805 43.1335 34.805 44.1476C34.805 45.1127 35.492 45.6525 36.4898 45.6362C37.4385 45.6525 38.1255 45.1127 38.1255 44.1476C38.1255 43.1335 37.4385 42.6264 36.4898 42.6264Z" fill="#218BE7"/>
<path d="M28.7137 39.7161V54.8955H26.0638V39.7161H28.7137ZM24.2645 40.9919V43.102H19.4392V49.1869C21.9664 49.1787 23.4794 49.1215 25.1642 48.8107L25.3768 50.9371C23.4794 51.3297 21.582 51.3951 18.1797 51.3787H16.822V40.9919H24.2645Z" fill="#228BEA"/>
<path d="M4.02387 40.7302C6.04399 40.7139 7.58156 42.3414 7.9496 44.9831H10.0924V39.7161H12.6932V54.8955H10.0924V47.0768H7.98232C7.70424 49.9311 6.11759 51.6732 4.02387 51.6732C1.68479 51.6732 0 49.5631 0 46.1772C0 42.8403 1.68479 40.7139 4.02387 40.7302ZM4.02387 43.102C3.12423 43.0856 2.50265 44.0834 2.51901 46.1772C2.50265 48.3036 3.12423 49.2687 4.02387 49.2687C4.93988 49.2687 5.52873 48.3036 5.52873 46.1772C5.52873 44.0834 4.93988 43.0856 4.02387 43.102Z" fill="#228BEA"/>
<circle cx="30.8286" cy="14.0578" r="3.80487" fill="#218BE7"/>
</svg>
