<svg width="36" height="36" viewBox="0 0 36 36" fill="none" xmlns="http://www.w3.org/2000/svg">
<g clip-path="url(#clip0_15_180)">
<path d="M21.9422 34.713C21.4112 34.857 20.6102 33.588 20.4662 33.048L20.3852 32.76V28.278C20.3852 27.99 20.2322 27.756 20.0072 27.621C19.8902 27.54 19.7552 27.486 19.6022 27.486H19.1702C18.9992 27.486 18.8462 27.558 18.7202 27.648C18.5222 27.792 18.3872 28.017 18.3872 28.278V31.716L18.0362 33.012C17.9012 33.552 17.0912 34.821 16.5602 34.677C16.0292 34.533 15.9662 33.03 16.1102 32.499L16.1462 32.364L18.1532 28.881C18.3692 28.503 18.2432 28.026 17.8652 27.81L17.5952 27.657L17.4962 27.594C17.3702 27.522 17.2352 27.486 17.1002 27.486C16.8302 27.486 16.5692 27.63 16.4252 27.882L16.7672 26.658H21.9962L22.3382 27.864C22.1222 27.504 21.6542 27.387 21.2852 27.594L20.9972 27.765L20.9072 27.81C20.5382 28.026 20.4032 28.503 20.6192 28.881L22.1132 31.455L22.4012 32.535C22.5362 33.066 22.4822 34.569 21.9422 34.713Z" fill="#D0D5DA"/>
<path d="M20.0074 27.6183C19.8877 27.5445 19.7545 27.4905 19.6042 27.4905H19.174C19.0012 27.4905 18.8491 27.558 18.7195 27.6525C18.5242 27.7956 18.3892 28.0152 18.3892 28.2753V32.8563C18.3892 33.4089 18.8365 34.8426 19.3891 34.8426C19.9417 34.8426 20.389 33.4089 20.389 32.8563V28.2753C20.389 27.9927 20.2315 27.7569 20.0074 27.6183Z" fill="#EBEBEB"/>
<path d="M17.8679 27.8109L17.5943 27.6525L17.4953 27.5949C17.12 27.378 16.6403 27.5067 16.4234 27.882L14.1329 31.8492C13.8566 32.3271 13.5281 33.7932 14.006 34.0686C14.4839 34.3449 15.5891 33.327 15.8645 32.8491L16.1444 32.3649L18.1559 28.881C18.3728 28.5057 18.2441 28.026 17.8688 27.8091L17.8679 27.8109Z" fill="#EBEBEB"/>
<path d="M22.355 27.8829C22.3514 27.8766 22.3442 27.873 22.3406 27.8667C22.1183 27.5067 21.6521 27.3834 21.2831 27.5958L20.996 27.7614L20.9105 27.8109C20.5352 28.0278 20.4065 28.5075 20.6234 28.8828L22.1093 31.4568L23.4071 33.7041C23.6834 34.182 24.2945 34.3467 24.7733 34.0704C25.2512 33.7941 25.415 33.183 25.1396 32.7042L22.355 27.8829Z" fill="#EBEBEB"/>
<path d="M22.0088 25.0884C22.0088 23.7168 20.8964 22.6044 19.5248 22.6044H19.253C17.8814 22.6044 16.769 23.7168 16.769 25.0884V25.1361H22.0088V25.0884Z" fill="#EBEBEB"/>
<path d="M21.9989 26.6571H22.0088V25.9434V25.1361H16.769V25.9434V26.6562V26.6571H21.9989Z" fill="#EF4452"/>
<path d="M32.7332 10.512C32.7422 10.296 32.7512 10.089 32.7422 9.882L32.2382 9.378L32.6612 8.964C32.6342 8.775 32.5982 8.595 32.5622 8.424L31.9232 9.063L30.4202 7.56L31.7072 6.282C31.6262 6.156 31.5362 6.03 31.4462 5.904L30.1052 7.245L28.6112 5.751L29.9522 4.401C29.8262 4.311 29.7092 4.221 29.5742 4.14L28.2872 5.427L26.7932 3.933L27.4592 3.267C27.2792 3.222 27.0992 3.186 26.9282 3.159L26.4692 3.609L25.9292 3.069C25.8572 3.069 25.7942 3.06 25.7222 3.06C25.5782 3.06 25.4432 3.078 25.3082 3.087L26.1542 3.933L24.6602 5.427L23.1572 3.933L23.7962 3.294C23.4902 3.366 23.1842 3.456 22.8872 3.564L22.8422 3.609L22.8152 3.591C22.6622 3.645 22.5092 3.699 22.3562 3.762L22.5182 3.933L21.0242 5.427L20.4482 4.851C20.3222 4.941 20.2052 5.031 20.0792 5.13L20.7002 5.751L19.2062 7.245L18.5852 6.624C18.4862 6.741 18.3962 6.867 18.3062 6.984L18.8912 7.56L17.3882 9.063L17.2262 8.901C17.1632 9.045 17.0912 9.198 17.0372 9.351L17.0732 9.378L17.0102 9.441C16.9022 9.738 16.8212 10.035 16.7492 10.332L17.3882 9.702L18.8912 11.196L17.3882 12.699L16.5332 11.844C16.5242 12.051 16.5152 12.258 16.5242 12.465L17.0732 13.014L16.6232 13.464C16.6502 13.644 16.6772 13.824 16.7222 14.004L17.3882 13.329L18.8912 14.832L17.5952 16.119C17.6762 16.245 17.7662 16.371 17.8562 16.497L19.2062 15.147L20.7092 16.65L19.3682 17.982C19.4942 18.072 19.6202 18.162 19.7462 18.243L21.0242 16.965L22.5182 18.459L21.8792 19.098C22.0592 19.143 22.2392 19.17 22.4192 19.197L22.8422 18.783L23.3372 19.278C23.4092 19.278 23.4812 19.287 23.5442 19.287C23.6882 19.287 23.8232 19.269 23.9582 19.269L23.1572 18.459L24.6602 16.965L26.1542 18.459L25.5962 19.017C25.8842 18.945 26.1722 18.864 26.4512 18.756C26.4782 18.747 26.4962 18.747 26.5232 18.738C26.6492 18.684 26.7842 18.639 26.9102 18.585L26.7932 18.459L28.2872 16.965L28.8182 17.496C28.9442 17.406 29.0612 17.316 29.1872 17.226L28.6112 16.65L30.1052 15.147L30.6812 15.723C30.7802 15.606 30.8702 15.489 30.9602 15.363L30.4202 14.832L31.9232 13.329L32.0402 13.455C32.1032 13.32 32.1572 13.185 32.2112 13.05C32.2112 13.032 32.2202 13.014 32.2292 12.996C32.3282 12.708 32.4182 12.42 32.4902 12.123L31.9232 12.699L30.4202 11.196L31.9232 9.702L32.7332 10.512ZM29.7902 7.56L28.2872 9.063L26.7932 7.56L28.2872 6.066L29.7902 7.56ZM22.5182 11.196L21.0242 12.699L19.5212 11.196L21.0242 9.702L22.5182 11.196ZM21.3392 9.378L22.8422 7.884L24.3362 9.378L22.8422 10.881L21.3392 9.378ZM22.8422 11.511L24.3362 13.014L22.8422 14.508L21.3392 13.014L22.8422 11.511ZM23.1572 11.196L24.6602 9.702L26.1542 11.196L24.6602 12.699L23.1572 11.196ZM24.9752 9.378L26.4692 7.884L27.9722 9.378L26.4692 10.881L24.9752 9.378ZM26.4692 11.511L27.9722 13.014L26.4692 14.508L24.9752 13.014L26.4692 11.511ZM26.7932 11.196L28.2872 9.702L29.7902 11.196L28.2872 12.699L26.7932 11.196ZM26.4692 4.248L27.9722 5.751L26.4692 7.245L24.9752 5.751L26.4692 4.248ZM26.1542 7.56L24.6602 9.063L23.1572 7.56L24.6602 6.066L26.1542 7.56ZM22.8422 4.248L24.3362 5.751L22.8422 7.245L21.3392 5.751L22.8422 4.248ZM21.0242 6.066L22.5182 7.56L21.0242 9.063L19.5212 7.56L21.0242 6.066ZM17.7122 9.378L19.2062 7.884L20.7092 9.378L19.2062 10.881L17.7122 9.378ZM17.7122 13.014L19.2062 11.511L20.7092 13.014L19.2062 14.508L17.7122 13.014ZM19.5212 14.832L21.0242 13.329L22.5182 14.832L21.0242 16.326L19.5212 14.832ZM22.8422 18.144L21.3392 16.65L22.8422 15.147L24.3362 16.65L22.8422 18.144ZM23.1572 14.832L24.6602 13.329L26.1542 14.832L24.6602 16.326L23.1572 14.832ZM26.4692 18.144L24.9752 16.65L26.4692 15.147L27.9722 16.65L26.4692 18.144ZM28.2872 16.326L26.7932 14.832L28.2872 13.329L29.7902 14.832L28.2872 16.326ZM31.5992 13.014L30.1052 14.508L28.6022 13.014L30.1052 11.511L31.5992 13.014ZM30.1052 10.881L28.6112 9.378L30.1052 7.884L31.5992 9.378L30.1052 10.881Z" fill="#AFB7C0"/>
<path d="M9.6013 25.0336C9.5509 24.9832 9.4879 24.9589 9.4321 24.9211C9.0055 24.6313 8.4295 24.6556 8.0515 25.0336L1.6714 31.4136C1.243 31.842 1.243 32.5359 1.6714 32.9634L2.845 34.137C3.2734 34.5654 3.9673 34.5654 4.3948 34.137L10.7749 27.7569C11.1529 27.3789 11.1772 26.8029 10.8874 26.3763C10.8487 26.3196 10.8244 26.2566 10.7749 26.2071L9.6013 25.0336Z" fill="#333D4B"/>
<path d="M16.4962 17.856L9.43213 24.9201C9.48883 24.9588 9.55183 24.9831 9.60133 25.0326L10.7749 26.2062C10.8253 26.2566 10.8496 26.3196 10.8874 26.3754L17.9533 19.3095C17.6851 19.0989 17.4241 18.8757 17.1775 18.6291C16.9318 18.3825 16.7059 18.1233 16.4953 17.8551L16.4962 17.856Z" fill="#FFC84D"/>
<path d="M32.0889 3.71883C31.188 2.81793 30.1269 2.16273 28.983 1.73883C28.9344 1.72083 28.8849 1.70643 28.8354 1.68933C27.8427 1.34103 26.7906 1.15833 25.7187 1.15833C25.635 1.15833 25.5504 1.16913 25.4667 1.17093C25.4019 1.17273 25.3362 1.17813 25.2714 1.18083C24.8988 1.19793 24.5262 1.23483 24.1527 1.29333C24.0735 1.30593 23.9952 1.31583 23.916 1.32933C23.0484 1.48413 22.1889 1.75233 21.3555 2.12853C21.2232 2.18883 21.0909 2.25183 20.9604 2.31753C20.3115 2.64153 19.686 3.03483 19.0893 3.49473C19.0821 3.50013 19.0749 3.50463 19.0677 3.51093C18.966 3.59013 18.8607 3.66213 18.7608 3.74583C18.75 3.75483 18.741 3.76473 18.7302 3.77373C18.4611 3.99873 18.1974 4.23363 17.9445 4.48653C17.6916 4.73943 17.454 5.00132 17.2299 5.26952C17.1354 5.38202 17.0544 5.50083 16.9653 5.61603C16.9617 5.62053 16.9581 5.62503 16.9545 5.62953C16.5027 6.21543 16.1157 6.83012 15.7953 7.46642C15.7242 7.60772 15.6459 7.74633 15.582 7.88943C14.5263 10.2213 14.3436 12.7764 15.0429 15.0453V15.0471C15.3534 16.056 15.8322 17.0091 16.4982 17.8578C16.7088 18.126 16.9338 18.3852 17.1804 18.6318C17.427 18.8784 17.688 19.1016 17.9562 19.3122C18.6888 19.8864 19.497 20.3247 20.3529 20.6352C20.4312 20.6631 20.5095 20.6892 20.5887 20.7153C21.5364 21.0285 22.5336 21.1941 23.5506 21.1941C23.6343 21.1941 23.718 21.1833 23.8017 21.1815C23.898 21.1788 23.9952 21.1716 24.0915 21.1671C24.4326 21.1482 24.7746 21.1131 25.1166 21.06C25.1958 21.0474 25.2741 21.0375 25.3533 21.024C26.2209 20.8692 27.0804 20.601 27.9147 20.2248C28.0461 20.1654 28.1775 20.1024 28.308 20.0367C28.9578 19.7118 29.5851 19.3194 30.1818 18.8586C30.1872 18.8541 30.1935 18.8505 30.1989 18.846C30.3024 18.7659 30.4095 18.6912 30.5112 18.6075C30.5211 18.5994 30.5301 18.5895 30.54 18.5805C30.8091 18.3564 31.0719 18.1215 31.3257 17.8677C32.2284 16.965 32.9385 15.9516 33.4758 14.8869C33.5469 14.7456 33.6252 14.607 33.6891 14.4639C34.2516 13.221 34.5693 11.9142 34.6377 10.6209C34.6494 10.4067 34.644 10.1934 34.6422 9.98013C34.6161 7.65183 33.7809 5.41083 32.0916 3.72153L32.0889 3.71883ZM30.9576 15.3639C30.8685 15.4854 30.7776 15.606 30.6822 15.7248C30.4626 15.9975 30.2313 16.2639 29.9775 16.5186C29.7255 16.7706 29.4582 17.0028 29.1837 17.2233C29.0649 17.3187 28.9425 17.4069 28.8201 17.496C28.2198 17.9343 27.5817 18.3033 26.9139 18.5859C26.7843 18.6408 26.6511 18.6849 26.5188 18.7335C26.4963 18.7416 26.4738 18.7506 26.4504 18.7587C26.1687 18.8604 25.8834 18.9477 25.5954 19.0197C25.0563 19.1556 24.5091 19.2375 23.9601 19.2654C23.8224 19.2726 23.6847 19.2879 23.5479 19.2879C23.4768 19.2879 23.4075 19.2798 23.3364 19.278C23.0259 19.2699 22.7208 19.242 22.4211 19.1979C22.2393 19.1709 22.0602 19.1385 21.8838 19.0989C21.117 18.9279 20.3979 18.639 19.7472 18.2394C19.6167 18.1593 19.4898 18.0738 19.3656 17.9847C19.0686 17.7732 18.7842 17.5428 18.5241 17.2827C18.2766 17.0352 18.0615 16.7679 17.8608 16.4925C17.7708 16.3692 17.679 16.2468 17.598 16.119C17.1876 15.4665 16.8933 14.7519 16.7187 14.0022C16.6773 13.8249 16.6503 13.644 16.6215 13.4631C16.5702 13.1337 16.5333 12.8016 16.5243 12.4641C16.5189 12.2571 16.5252 12.0483 16.536 11.8395C16.5621 11.3382 16.635 10.8351 16.7529 10.3338C16.8231 10.035 16.9059 9.73713 17.0085 9.44193C17.0193 9.41043 17.0301 9.37892 17.0409 9.34742C17.0958 9.19532 17.1615 9.04503 17.2245 8.89473C17.5035 8.23233 17.8644 7.59063 18.309 6.98313C18.3981 6.86163 18.489 6.74103 18.5844 6.62223C18.804 6.34953 19.0353 6.08313 19.2891 5.82843C19.5411 5.57643 19.8084 5.34423 20.0829 5.12373C20.2017 5.02833 20.3241 4.94012 20.4465 4.85102C21.0468 4.41272 21.6849 4.04373 22.3527 3.76113C22.5048 3.69633 22.6605 3.64413 22.8153 3.58743C22.8405 3.57843 22.8648 3.56853 22.89 3.55953C23.187 3.45513 23.4876 3.36603 23.7918 3.29403C24.2922 3.17613 24.798 3.10683 25.3056 3.08073C25.4433 3.07353 25.5819 3.05823 25.7196 3.05823C25.7907 3.05823 25.8591 3.06633 25.9293 3.06813C26.2668 3.07713 26.598 3.10773 26.9238 3.15903C27.1038 3.18693 27.2802 3.22293 27.4548 3.26433C28.2162 3.44253 28.9317 3.73503 29.5761 4.14003C29.7057 4.22103 29.8299 4.30923 29.9532 4.39923C30.2313 4.60173 30.4986 4.81863 30.7425 5.06253C31.0053 5.32533 31.2321 5.61063 31.4427 5.90493C31.5318 6.02913 31.6236 6.15153 31.7037 6.28023C32.1096 6.93993 32.394 7.66263 32.5623 8.41863C32.6019 8.59683 32.6325 8.77683 32.6595 8.95773C32.7045 9.26283 32.7351 9.56973 32.7432 9.88113C32.7486 10.0881 32.7423 10.2969 32.7315 10.5057C32.7036 11.0439 32.6253 11.5857 32.4912 12.1239C32.4183 12.4173 32.331 12.7089 32.2266 12.9978C32.2212 13.0131 32.214 13.0284 32.2077 13.0437C32.1573 13.1805 32.0997 13.3155 32.0421 13.4505C31.7631 14.1129 31.4022 14.7546 30.9576 15.3621V15.3639Z" fill="#FFC84D"/>
</g>
<defs>
<clipPath id="clip0_15_180">
<rect width="36" height="36" fill="white"/>
</clipPath>
</defs>
</svg>
