<svg width="36" height="36" viewBox="0 0 36 36" fill="none" xmlns="http://www.w3.org/2000/svg">
<g clip-path="url(#clip0_15_101)">
<path d="M17.6039 8.61298L14.2721 5.34868C13.4279 4.52158 11.3597 2.76748 8.77491 5.40538C3.3344 10.9593 6.71211 18.621 6.71211 18.621L7.26741 19.1646L17.6039 8.61298Z" fill="#EF4452"/>
<path d="M28.0306 6.85621C22.0159 0.964813 18.8605 1.98631 14.8267 5.89321C8.29813 12.5577 6.71143 18.621 6.71143 18.621L17.8183 29.5011C17.8183 29.5011 24.3802 27.2457 30.376 21.1257C34.3036 17.1162 34.0453 12.7485 28.0306 6.85621Z" fill="#D12030"/>
<path d="M17.8191 29.5011L6.71217 18.621L3.44787 21.9528C2.84667 22.5666 2.85657 23.5503 3.47037 24.1515L12.3561 32.8563C12.9699 33.4575 13.9536 33.4476 14.5548 32.8338L17.8191 29.5011Z" fill="#EF4452"/>
</g>
<defs>
<clipPath id="clip0_15_101">
<rect width="36" height="36" fill="white"/>
</clipPath>
</defs>
</svg>
