<svg width="36" height="36" viewBox="0 0 36 36" fill="none" xmlns="http://www.w3.org/2000/svg">
<g clip-path="url(#clip0_15_130)">
<path d="M14.2671 12.3057H17.7303C18.6726 12.3057 19.4358 11.5425 19.4358 10.6002V8.1684L14.2671 12.3057Z" fill="#F78700"/>
<path d="M8.33594 6.78148C6.39914 7.82908 5.52344 8.77408 4.96724 10.4094C3.60734 14.409 2.29694 24.39 2.25104 28.3131C2.20514 32.2362 5.03384 33.525 8.34314 33.525C11.6524 33.525 26.6806 33.5538 29.7172 33.5538C32.4955 33.5538 33.751 32.2569 33.751 29.0997C33.751 22.2921 29.5831 16.9461 23.1778 16.9461C16.7725 16.9461 11.1016 23.9526 11.1016 23.9526L11.638 13.2012C11.6632 12.699 12.0781 12.3039 12.5803 12.3039H14.2678L19.603 8.83708C20.4517 8.28538 20.6794 7.14328 20.1061 6.30898L18.0802 3.35788C17.56 2.60008 16.5583 2.35348 15.7492 2.78818C13.6252 3.93028 9.71834 6.03178 8.33594 6.77968V6.78148Z" fill="#FFC84D"/>
</g>
<defs>
<clipPath id="clip0_15_130">
<rect width="36" height="36" fill="white"/>
</clipPath>
</defs>
</svg>
