<svg width="61" height="55" viewBox="0 0 61 55" fill="none" xmlns="http://www.w3.org/2000/svg">
<path d="M54.3418 23.7158H56.9089C57.3231 23.7158 57.6589 24.0516 57.6589 24.4658V33.1122C57.6589 33.5264 57.3231 33.8622 56.9089 33.8622H54.3418V23.7158Z" fill="#FF8000"/>
<path d="M7.21973 23.7158H4.65266C4.23844 23.7158 3.90266 24.0516 3.90266 24.4658V33.1122C3.90266 33.5264 4.23844 33.8622 4.65266 33.8622H7.21973V23.7158Z" fill="#FF8000"/>
<path d="M30.7812 0.10437C38.5667 0.104704 44.8787 6.43745 44.8789 14.2499C44.8788 17.6424 43.6873 20.7561 41.7031 23.1932C40.0263 25.6377 37.7124 29.1531 35.7295 32.1405C34.6976 33.6952 33.7547 35.1078 33.04 36.1464C32.6833 36.6648 32.3803 37.0949 32.1504 37.4042C32.0361 37.5579 31.935 37.6882 31.8525 37.786C31.8117 37.8345 31.7695 37.8819 31.7295 37.9218C31.7016 37.9496 31.6321 38.0171 31.54 38.0634C30.8964 38.3863 30.2569 38.2111 29.9736 38.0624V38.0634L29.9707 38.0614C29.9668 38.0593 29.9618 38.0575 29.958 38.0555V38.0536C29.8781 38.0102 29.8149 37.9541 29.7832 37.9237C29.7401 37.8822 29.695 37.8325 29.6514 37.7821C29.5632 37.6803 29.4569 37.5453 29.3379 37.3876C29.0984 37.07 28.7862 36.6304 28.4219 36.1034C27.6918 35.0473 26.7361 33.617 25.6992 32.0526C23.622 28.9187 21.2137 25.241 19.5889 22.8885L19.0469 22.1044H19.0547C17.5572 19.8576 16.6837 17.1558 16.6836 14.2499C16.6838 6.43725 22.9955 0.10437 30.7812 0.10437ZM30.7812 6.25085C26.4856 6.25085 23.0029 9.74601 23.0029 14.0565C23.0032 18.3668 26.4857 21.8612 30.7812 21.8612C35.0767 21.8612 38.5593 18.3668 38.5596 14.0565C38.5596 9.74604 35.0769 6.25091 30.7812 6.25085Z" fill="#228BEA"/>
<rect x="13.3662" y="26.0576" width="34.2439" height="4.29268" fill="#228BEA"/>
<rect width="34.2439" height="4.29268" transform="matrix(-1 0 0 1 48.1953 26.0576)" fill="#228BEA"/>
<rect x="48.4883" y="19.4241" width="5.56097" height="17.2683" rx="1.5" fill="#FF8000"/>
<rect width="5.56097" height="17.2683" rx="1.5" transform="matrix(-1 0 0 1 13.0732 19.4241)" fill="#FF8000"/>
<path d="M57.1727 40.5V42.5774H54.4411C54.6292 44.0086 55.537 45.4644 57.8597 46.1432L56.5184 48.1879C54.8909 47.7217 53.795 46.7648 53.1325 45.5544C52.4373 46.8793 51.2841 47.9343 49.5503 48.4823L48.209 46.4049C50.5808 45.6934 51.5295 44.1149 51.7258 42.5774H48.896V40.5H57.1727ZM61.0003 39.7476V48.4169H58.3668V39.7476H61.0003ZM61.0003 48.9894V54.7144H50.6789V48.9894H61.0003ZM53.2634 51.034V52.6207H58.4322V51.034H53.2634Z" fill="#00514D"/>
<path d="M37.8482 49.1529C37.8482 50.2816 38.2408 51.4348 39.3203 52.2445C40.4081 51.4021 40.8415 50.2407 40.8579 49.1529V48.8258H43.426V49.1529C43.426 50.7396 44.0639 52.13 46.1249 52.7352L44.8654 54.6163C43.4669 54.1664 42.5754 53.3322 42.052 52.2445C41.5449 53.3486 40.6862 54.2728 39.3694 54.7635C37.9872 54.2809 37.1203 53.3813 36.6214 52.2935C36.0816 53.3404 35.2065 54.1664 33.8734 54.6163L32.5975 52.7352C34.6258 52.0645 35.2801 50.6251 35.2801 49.1529V48.8258H37.8482V49.1529ZM44.8491 39.7476V48.2206H42.2155V39.7476H44.8491ZM36.4905 40.4346C38.8787 40.4346 40.727 41.9721 40.727 44.1476C40.727 46.2577 38.8787 47.8117 36.4905 47.8117C34.086 47.8117 32.2377 46.2577 32.254 44.1476C32.2377 41.9721 34.086 40.4346 36.4905 40.4346ZM36.4905 42.6264C35.4927 42.6264 34.8057 43.1335 34.8057 44.1476C34.8057 45.1127 35.4927 45.6525 36.4905 45.6362C37.4392 45.6525 38.1262 45.1127 38.1262 44.1476C38.1262 43.1335 37.4392 42.6264 36.4905 42.6264Z" fill="#228BEA"/>
<path d="M28.714 39.7161V54.8955H26.0641V39.7161H28.714ZM24.2648 40.9919V43.102H19.4394V49.1869C21.9666 49.1787 23.4796 49.1215 25.1644 48.8107L25.3771 50.9371C23.4796 51.3297 21.5822 51.3951 18.1799 51.3787H16.8223V40.9919H24.2648Z" fill="#228BEA"/>
<path d="M4.02387 40.7302C6.04399 40.7139 7.58156 42.3414 7.9496 44.9831H10.0924V39.7161H12.6932V54.8955H10.0924V47.0768H7.98232C7.70424 49.9311 6.11759 51.6732 4.02387 51.6732C1.68479 51.6732 0 49.5631 0 46.1772C0 42.8403 1.68479 40.7139 4.02387 40.7302ZM4.02387 43.102C3.12423 43.0856 2.50265 44.0834 2.51901 46.1772C2.50265 48.3036 3.12423 49.2687 4.02387 49.2687C4.93988 49.2687 5.52873 48.3036 5.52873 46.1772C5.52873 44.0834 4.93988 43.0856 4.02387 43.102Z" fill="#228BEA"/>
<circle cx="30.8293" cy="14.058" r="3.80487" fill="#228BEA"/>
</svg>
