<svg width="28" height="28" viewBox="0 0 28 28" fill="none" xmlns="http://www.w3.org/2000/svg">
<g clip-path="url(#clip0_310_1521)">
<path d="M24.5 25.899C24.1416 25.899 23.7839 25.7625 23.5102 25.4888L17.2235 19.2021C16.6768 18.6554 16.6768 17.7692 17.2235 17.2225C17.7702 16.6758 18.6564 16.6758 19.2031 17.2225L25.4898 23.5092C26.0365 24.0559 26.0365 24.9421 25.4898 25.4888C25.2161 25.7625 24.8584 25.899 24.5 25.899Z" fill="#4E5968"/>
<path d="M20.7409 12.1205C20.7409 7.3675 16.8741 3.5 12.1204 3.5C9.74389 3.5 7.58859 4.4667 6.02759 6.0277L18.2125 18.2133C19.7735 16.6523 20.7409 14.497 20.7409 12.1205Z" fill="#E5E9EE"/>
<path d="M18.2133 18.2129L6.0277 6.02734C4.4667 7.58834 3.5 9.74364 3.5 12.1201C3.5 16.8731 7.3675 20.7406 12.1205 20.7406C14.497 20.7406 16.6523 19.7739 18.2133 18.2129Z" fill="#F0F3F6"/>
<path d="M12.1198 21.7895C6.78785 21.7895 2.44995 17.4516 2.44995 12.1197C2.44995 6.78782 6.78785 2.44922 12.1198 2.44922C17.4517 2.44922 21.7903 6.78712 21.7903 12.1197C21.7903 17.4523 17.4524 21.7895 12.1198 21.7895ZM12.1198 4.54922C7.94565 4.54922 4.54995 7.94562 4.54995 12.1197C4.54995 16.2938 7.94635 19.6895 12.1198 19.6895C16.2931 19.6895 19.6903 16.2931 19.6903 12.1197C19.6903 7.94632 16.2938 4.54922 12.1198 4.54922Z" fill="#A3ADB7"/>
</g>
<defs>
<clipPath id="clip0_310_1521">
<rect width="28" height="28" fill="white"/>
</clipPath>
</defs>
</svg>
