<svg width="36" height="36" viewBox="0 0 36 36" fill="none" xmlns="http://www.w3.org/2000/svg">
<g clip-path="url(#clip0_15_109)">
<path d="M13.8081 23.1777L24.1797 20.3454L19.5348 15.9408L15.1824 17.9793L13.8081 23.1777Z" fill="#FF9C00"/>
<path d="M11.4015 15.264L15.2247 7.76161C15.798 6.58351 16.4406 5.80051 17.5935 5.95351L28.02 7.74541L32.6964 9.49951C33.2103 9.67681 33.4497 10.2681 33.2031 10.7532C33.0195 11.1132 32.6172 11.3067 32.2221 11.2239L29.9802 10.746C29.5698 10.6866 28.8588 10.4643 29.0712 10.8207C29.397 11.3661 29.4501 11.7045 28.8291 11.8413H28.8273C28.4799 11.9187 28.119 11.79 27.8976 11.5119L25.7475 9.82261L19.5015 9.95671L14.808 22.1796L2.70117 22.2966V19.575C2.70117 19.575 11.3817 15.3666 11.4024 15.2658L11.4015 15.264Z" fill="#FFC84D"/>
<path d="M23.8881 22.1778C26.8083 22.1778 29.1756 19.8105 29.1756 16.8903C29.1756 13.9701 26.8083 11.6028 23.8881 11.6028C20.9679 11.6028 18.6006 13.9701 18.6006 16.8903C18.6006 19.8105 20.9679 22.1778 23.8881 22.1778Z" fill="#FFC84D"/>
<path d="M21.4104 15.4575C22.49 15.4575 23.3652 14.5823 23.3652 13.5027C23.3652 12.4231 22.49 11.5479 21.4104 11.5479C20.3308 11.5479 19.4556 12.4231 19.4556 13.5027C19.4556 14.5823 20.3308 15.4575 21.4104 15.4575Z" fill="#FFC84D"/>
<path d="M24.3524 14.7933C24.6593 15.327 24.6413 15.9462 24.3524 16.371C24.2768 16.4826 24.2624 16.6158 24.3227 16.722C24.383 16.8273 24.5063 16.8822 24.6404 16.8723C25.1534 16.8372 25.697 17.1315 26.0048 17.6652C26.4143 18.3762 26.2469 19.2402 25.6313 19.5948C25.0157 19.9494 24.185 19.6596 23.7755 18.9486C23.4686 18.4149 23.4866 17.7966 23.7755 17.3709C23.8511 17.2593 23.8655 17.1252 23.8052 17.0199C23.744 16.9146 23.6216 16.8597 23.4866 16.8687C22.9745 16.9038 22.43 16.6086 22.1231 16.0749C21.7136 15.3639 21.881 14.4999 22.4966 14.1453C23.1122 13.7907 23.9429 14.0805 24.3524 14.7915V14.7933Z" fill="#5A75FF"/>
<path d="M22.3975 11.8161C22.9051 11.6667 23.4442 11.592 24.0022 11.6037C26.9218 11.6676 29.2375 14.0859 29.1736 17.0055C29.1457 18.3069 28.6489 19.4868 27.8488 20.3913C26.2963 14.769 22.4155 11.8296 22.3975 11.8161Z" fill="#515A8A"/>
<path d="M21.2995 19.1718C21.6121 19.1718 21.8656 18.9184 21.8656 18.6057C21.8656 18.2931 21.6121 18.0396 21.2995 18.0396C20.9868 18.0396 20.7334 18.2931 20.7334 18.6057C20.7334 18.9184 20.9868 19.1718 21.2995 19.1718Z" fill="#EF4452"/>
<path d="M32.6378 30.0663H2.7002V21.2247C20 24.4269 28.1999 15.048 32.6378 21.2247V30.0663Z" fill="#93C9FF"/>
</g>
<defs>
<clipPath id="clip0_15_109">
<rect width="36" height="36" fill="white"/>
</clipPath>
</defs>
</svg>
