<svg width="36" height="36" viewBox="0 0 36 36" fill="none" xmlns="http://www.w3.org/2000/svg">
<g clip-path="url(#clip0_15_92)">
<path d="M18 33.75C26.6985 33.75 33.75 26.6985 33.75 18C33.75 9.30152 26.6985 2.25 18 2.25C9.30152 2.25 2.25 9.30152 2.25 18C2.25 26.6985 9.30152 33.75 18 33.75Z" fill="#69CC29"/>
<path d="M7.52333 6.28741C7.07603 6.68701 6.65303 7.11001 6.25433 7.55731C8.12093 9.79741 13.8809 18.1647 6.19043 28.422C6.59093 28.8774 7.01843 29.3067 7.46843 29.7126C16.193 18.3042 9.49973 8.68231 7.52333 6.28741Z" fill="white"/>
<path d="M29.8097 28.422C22.1183 18.1656 27.8783 9.79741 29.7449 7.55731C29.3462 7.11001 28.9232 6.68701 28.4759 6.28741C26.4995 8.68231 19.8062 18.3033 28.5308 29.7117C28.9808 29.3058 29.4083 28.8765 29.8088 28.4211L29.8097 28.422Z" fill="white"/>
</g>
<defs>
<clipPath id="clip0_15_92">
<rect width="36" height="36" fill="white"/>
</clipPath>
</defs>
</svg>
