<svg width="36" height="36" viewBox="0 0 36 36" fill="none" xmlns="http://www.w3.org/2000/svg">
<g clip-path="url(#clip0_15_67)">
<path d="M22.9404 5.634C22.9593 5.3217 23.0358 5.0283 23.1645 4.7601C19.9236 4.4325 16.6665 4.4262 13.4238 4.7421C13.5552 5.0094 13.6344 5.3028 13.656 5.6151C16.7466 5.3235 19.8498 5.3298 22.9404 5.634Z" fill="#4E5968"/>
<path d="M7.11023 8.08202C7.27223 9.01802 6.64223 9.90002 5.70623 10.062L4.08623 10.341C3.15023 10.494 2.26823 9.87302 2.10623 8.93702L1.51223 5.43602C1.35023 4.50002 1.98023 3.61802 2.90723 3.45602L4.53623 3.17702C5.46323 3.02402 6.35423 3.64502 6.50723 4.58102L6.70523 5.73302L9.01823 5.35502C8.99123 5.49002 8.97323 5.62502 8.97323 5.77802C8.97323 5.94002 8.99123 6.10202 9.02723 6.25502L6.85823 6.61502L7.11023 8.08202Z" fill="#4E5968"/>
<path d="M34.8664 5.43602L34.2724 8.93702C34.1104 9.87302 33.2284 10.494 32.2924 10.341L30.6724 10.062C29.7364 9.90002 29.1154 9.01802 29.2684 8.08202L29.5204 6.61502L27.5674 6.28202C27.6034 6.12002 27.6214 5.94902 27.6214 5.77802C27.6214 5.64302 27.6034 5.50802 27.5854 5.38202L29.6734 5.73302L29.8714 4.58102C30.0244 3.64502 30.9154 3.02402 31.8424 3.17702L33.4714 3.45602C34.3984 3.61802 35.0284 4.50002 34.8664 5.43602Z" fill="#4E5968"/>
<path d="M21.0433 16.6824C20.9785 16.4313 20.9236 16.1811 20.8858 15.9426C20.8705 15.9561 20.8597 15.9732 20.8435 15.9867C19.345 17.2638 17.1697 17.199 15.7333 15.9345C15.6928 16.1991 15.6334 16.4781 15.5596 16.7589C15.1834 18.1962 14.323 19.6749 12.3511 19.5471L12.4798 20.151L12.8182 21.7395L13.8703 26.676L13.873 26.6895L15.502 27.045C17.3497 27.4482 19.2622 27.4482 21.1099 27.0432L22.738 26.6868L22.747 26.6427L23.7919 21.7395L24.2698 19.4949H24.268C22.2736 19.6227 21.415 18.1224 21.0433 16.6824Z" fill="#8A8A8A"/>
<path d="M10.3296 21.7404C8.355 21.7404 6.7746 23.3793 6.8466 25.353L7.0077 29.7369L6.9483 28.1241L11.3763 27.9981V27.9999L11.361 27.585C11.3394 27.0054 11.8254 26.5347 12.4041 26.5752L13.8693 26.6769L12.8172 21.7404H10.3287H10.3296Z" fill="#FFC84D"/>
<path d="M22.748 26.6769L24.2213 26.5752C24.8 26.5347 25.286 27.0054 25.2644 27.585L25.2437 28.1583L25.2518 27.9981L29.678 28.1241L29.7797 25.3539C29.8526 23.3802 28.2722 21.7413 26.2967 21.7413H23.792L22.7471 26.6445V26.6787L22.748 26.6769Z" fill="#FFC84D"/>
<path d="M15.7321 15.939C15.6961 16.2 15.6331 16.479 15.5611 16.758C15.1831 18.198 14.3191 19.674 12.3481 19.548L12.4831 20.151L9.29714 6.93902C9.17114 6.73202 9.07214 6.49802 9.02714 6.25502C8.99114 6.10202 8.97314 5.94002 8.97314 5.77802C8.97314 5.62502 8.99114 5.49002 9.01814 5.35502C9.21614 4.25702 10.1701 3.42902 11.3221 3.42902C12.2491 3.42902 13.0411 3.96902 13.4191 4.74302C13.5541 5.01302 13.6351 5.30102 13.6531 5.61602C13.6621 5.67002 13.6711 5.71502 13.6711 5.77802C13.6711 6.28202 13.5001 6.75902 13.2211 7.14602L14.4811 12.24C14.4721 12.303 14.4451 12.366 14.4361 12.429C13.9591 12.663 13.6261 13.14 13.6261 13.707C13.6261 14.481 14.2561 15.12 15.0301 15.12C15.1021 15.228 15.1741 15.336 15.2551 15.435C15.2821 15.471 15.3001 15.516 15.3271 15.543C15.4531 15.696 15.5971 15.813 15.7321 15.939Z" fill="#FFC84D"/>
<path d="M27.6212 5.77802C27.6212 5.94902 27.6032 6.12002 27.5672 6.28202C27.5132 6.52502 27.4142 6.74102 27.2972 6.94802L24.2642 19.494C22.2752 19.62 21.4112 18.126 21.0422 16.686C20.9792 16.434 20.9252 16.182 20.8892 15.939C21.0512 15.804 21.1952 15.642 21.3212 15.48C21.4202 15.363 21.5012 15.237 21.5822 15.111C22.3292 15.075 22.9232 14.463 22.9232 13.707C22.9232 13.167 22.6172 12.699 22.1672 12.465V12.447L22.1762 12.456C22.1672 12.375 22.1402 12.294 22.1222 12.213L23.3732 7.13702C23.0942 6.75902 22.9232 6.28202 22.9232 5.77802C22.9232 5.72402 22.9412 5.67902 22.9412 5.63402C22.9592 5.31902 23.0402 5.03102 23.1662 4.76102C23.5442 3.96902 24.3452 3.42902 25.2722 3.42902C26.4422 3.42902 27.3962 4.27502 27.5852 5.38202C27.6032 5.50802 27.6212 5.64302 27.6212 5.77802Z" fill="#FFC84D"/>
<path d="M22.176 12.456L22.167 12.447L18.306 10.179L14.535 12.393C14.499 12.402 14.472 12.42 14.436 12.429C14.445 12.366 14.472 12.303 14.481 12.24C14.49 12.222 14.49 12.204 14.499 12.186C14.517 12.078 14.544 11.97 14.571 11.862C14.616 11.736 14.661 11.61 14.715 11.493C14.76 11.385 14.805 11.277 14.859 11.178C14.913 11.07 14.985 10.962 15.057 10.854C15.129 10.755 15.183 10.656 15.255 10.566C15.372 10.422 15.507 10.287 15.642 10.161C15.687 10.125 15.723 10.071 15.768 10.035C15.849 9.963 15.93 9.918 16.011 9.864C16.119 9.783 16.227 9.702 16.344 9.63C16.452 9.567 16.569 9.522 16.677 9.468C16.794 9.423 16.902 9.369 17.019 9.324C17.127 9.288 17.244 9.261 17.361 9.234C17.478 9.198 17.604 9.171 17.73 9.153C17.847 9.135 17.964 9.126 18.072 9.117C18.153 9.117 18.225 9.099 18.306 9.099C18.36 9.099 18.414 9.108 18.468 9.108C18.585 9.117 18.693 9.126 18.81 9.144C18.936 9.162 19.062 9.18 19.188 9.207C19.305 9.234 19.413 9.27 19.53 9.306C19.638 9.342 19.746 9.387 19.854 9.432C19.971 9.486 20.088 9.54 20.205 9.603C20.295 9.657 20.385 9.711 20.475 9.774C20.583 9.846 20.7 9.927 20.808 10.017C20.898 10.089 20.97 10.17 21.051 10.251C21.096 10.287 21.132 10.323 21.168 10.368C21.213 10.404 21.249 10.44 21.285 10.476C21.294 10.494 21.303 10.512 21.321 10.53C21.42 10.647 21.501 10.782 21.582 10.908C21.681 11.061 21.771 11.223 21.852 11.394C21.906 11.529 21.969 11.655 22.014 11.79C22.059 11.898 22.077 12.024 22.104 12.141C22.104 12.159 22.113 12.186 22.122 12.213C22.14 12.294 22.167 12.375 22.176 12.456Z" fill="#FF9000"/>
<path d="M22.1675 12.465V12.447L18.3065 10.179L14.5355 12.393C14.4995 12.402 14.4725 12.42 14.4365 12.429C13.9595 12.663 13.6265 13.14 13.6265 13.707C13.6265 14.481 14.2565 15.12 15.0305 15.12C15.1025 15.228 15.1745 15.336 15.2555 15.435C15.2825 15.471 15.3005 15.516 15.3275 15.543C15.4535 15.696 15.5975 15.813 15.7325 15.939C17.1725 17.199 19.3415 17.262 20.8445 15.984C20.8625 15.975 20.8715 15.957 20.8895 15.939C21.0515 15.804 21.1955 15.642 21.3215 15.48C21.4205 15.363 21.5015 15.237 21.5825 15.111C22.3295 15.075 22.9235 14.463 22.9235 13.707C22.9235 13.167 22.6175 12.699 22.1675 12.465ZM17.6495 13.113C17.4605 13.113 17.3075 12.879 17.3075 12.591C17.3075 12.294 17.4605 12.069 17.6495 12.069C17.8475 12.069 18.0005 12.294 18.0005 12.591C18.0005 12.879 17.8475 13.113 17.6495 13.113ZM19.0355 13.113C18.8465 13.113 18.6845 12.879 18.6845 12.591C18.6845 12.294 18.8465 12.069 19.0355 12.069C19.2245 12.069 19.3775 12.294 19.3775 12.591C19.3775 12.879 19.2245 13.113 19.0355 13.113Z" fill="#FFAD00"/>
<path d="M6.94801 28.1232L7.00741 29.736L7.03081 30.3651L4.90321 31.7268C4.17691 32.1858 3.75931 33.003 3.81151 33.8607L3.82861 34.1388C3.84391 34.3872 4.05001 34.5807 4.29841 34.5807H11.1726C11.4399 34.5807 11.6541 34.3584 11.6433 34.0902L11.4912 30.3615L11.376 27.999V27.9972L6.94801 28.1232Z" fill="#4E5968"/>
<path d="M25.2434 28.1583L25.1354 30.3624L24.9833 34.0911C24.9725 34.3584 25.1858 34.5816 25.454 34.5816H32.3282C32.5766 34.5816 32.7827 34.3881 32.798 34.1397L32.8151 33.8616C32.8682 33.0048 32.4497 32.1867 31.7234 31.7277L29.5958 30.366L29.6777 28.1232H29.6759L25.2497 27.9972L25.2416 28.1574L25.2434 28.1583Z" fill="#4E5968"/>
<path d="M17.6536 13.1085C17.8453 13.1085 18.0001 12.8745 18.0001 12.5865C18.0001 12.2985 17.8444 12.0645 17.6536 12.0645C17.4628 12.0645 17.3062 12.2985 17.3062 12.5865C17.3062 12.8745 17.4619 13.1085 17.6536 13.1085Z" fill="black"/>
<path d="M19.0339 13.1085C19.2256 13.1085 19.3804 12.8745 19.3804 12.5865C19.3804 12.2985 19.2247 12.0645 19.0339 12.0645C18.8431 12.0645 18.6865 12.2985 18.6865 12.5865C18.6865 12.8745 18.8422 13.1085 19.0339 13.1085Z" fill="black"/>
</g>
<defs>
<clipPath id="clip0_15_67">
<rect width="36" height="36" fill="white"/>
</clipPath>
</defs>
</svg>
