<svg width="36" height="36" viewBox="0 0 36 36" fill="none" xmlns="http://www.w3.org/2000/svg">
<path d="M26.6607 26.1999H23.3514L19.287 27.5508C18.4761 27.8199 17.6013 27.8262 16.7868 27.5688L12.4659 26.2008H8.37716C8.30066 26.2008 8.22866 26.2188 8.15306 26.2233C6.37466 26.3412 4.96436 27.8055 4.96436 29.6136C4.96436 32.3172 7.15586 34.5087 9.85946 34.5087H26.1396C28.8432 34.5087 31.0347 32.3172 31.0347 29.6136C31.0347 27.7893 29.5992 26.3115 27.7983 26.2179C27.7389 26.2152 27.6822 26.1999 27.6219 26.1999H26.6616H26.6607Z" fill="#505967"/>
<path d="M12.467 26.1999L16.7879 27.5679C17.6024 27.8262 18.4772 27.8199 19.2881 27.5499L23.3525 26.199H24.4595L24.2678 15.2064C24.023 14.9823 23.7665 14.7717 23.5019 14.5737C23.4938 14.5683 23.4866 14.562 23.4785 14.5557C23.2274 14.3694 22.9664 14.1975 22.6982 14.0364C22.673 14.0211 22.6496 14.0058 22.6244 13.9905C22.3697 13.8402 22.106 13.7052 21.8378 13.5801C21.8018 13.563 21.7676 13.5441 21.7307 13.5279C21.4346 13.3947 21.1313 13.275 20.8208 13.1742C20.8181 13.1742 20.8163 13.1724 20.8136 13.1715C20.7173 13.1427 20.6192 13.1148 20.5211 13.0878C20.4275 13.0608 20.3321 13.0374 20.2367 13.0131C20.0702 12.9717 19.8956 12.942 19.7237 12.9078C19.7111 12.9123 19.6994 12.9177 19.6868 12.9213V13.518C19.6868 14.4702 18.9146 15.2424 17.9624 15.2424C17.0102 15.2424 16.238 14.4702 16.238 13.518V12.906C16.0643 12.9402 15.8879 12.9699 15.7196 13.0122C15.6242 13.0365 15.5288 13.0599 15.4352 13.0869C15.4352 13.0869 15.4343 13.0869 15.4334 13.0869C15.3353 13.1139 15.2381 13.1418 15.1418 13.1706C15.1418 13.1706 15.1409 13.1706 15.14 13.1706C15.1373 13.1706 15.1346 13.1733 15.1319 13.1742C14.8223 13.2759 14.519 13.3947 14.2238 13.5279C14.1869 13.5441 14.1518 13.5639 14.1158 13.581C13.8476 13.7061 13.5848 13.8411 13.3301 13.9905C13.3049 14.0058 13.2806 14.022 13.2545 14.0364C12.9872 14.1966 12.7271 14.3685 12.4769 14.5539C12.4679 14.5602 12.4589 14.5674 12.4499 14.5737C12.1862 14.7708 11.9315 14.9805 11.6867 15.2037C11.6867 15.2037 11.6858 15.2037 11.6849 15.2046L11.4932 26.1972H12.467V26.1999Z" fill="#FF7300"/>
<path d="M30.1677 26.199C30.1407 26.199 30.1137 26.199 30.0867 26.19V26.199H24.4617L24.2637 15.21C26.1897 16.956 27.4587 19.503 27.6027 22.383L27.6747 23.823H28.0437C28.1157 22.986 28.4577 22.464 29.0427 21.762L29.6547 21.033C29.8257 20.808 30.1497 20.772 30.3747 20.943C30.5007 21.051 30.5727 21.195 30.5727 21.348C30.5727 21.429 30.5547 21.519 30.5097 21.591L30.0867 22.329C29.6187 23.139 30.3207 23.589 30.6357 23.589H30.7167C31.1577 23.589 31.6347 23.094 31.3377 22.482C31.1757 22.149 31.0227 21.861 30.8967 21.618C30.7887 21.402 30.7707 21.114 30.9597 20.943C31.1577 20.763 31.5087 20.727 31.6437 20.934C32.2737 21.915 32.6697 22.608 32.7777 23.409C32.9667 24.813 31.9317 26.199 30.1677 26.199Z" fill="#F5CA5F"/>
<path d="M12.5727 6.90295C12.5667 6.90895 12.5607 6.91195 12.5547 6.91195V6.90295H12.5727Z" fill="#F5CA5F"/>
<path d="M23.4266 6.89398V6.92098C23.1026 6.87598 22.7786 6.79498 22.4546 6.69598C20.9516 6.23698 19.4666 5.21098 17.9906 3.71698C16.7936 5.48998 15.6146 6.51598 14.2196 6.83098C13.6976 6.95698 13.1576 6.98398 12.5726 6.90298C12.5666 6.90898 12.5606 6.91198 12.5546 6.91198C11.9156 7.24498 11.4746 7.90198 11.4746 8.67598C11.4746 9.73798 12.3116 10.602 13.3646 10.656C13.4996 10.863 13.6436 11.061 13.8056 11.259C14.4806 12.042 15.3176 12.582 16.2266 12.897H16.2356V13.518C16.2356 14.472 17.0096 15.246 17.9636 15.246C18.4316 15.246 18.8636 15.048 19.1786 14.742C19.4936 14.427 19.6826 13.995 19.6826 13.518V12.924C19.7006 12.915 19.7096 12.915 19.7186 12.906C19.7276 12.906 19.7456 12.897 19.7546 12.897C20.3936 12.681 21.0056 12.348 21.5546 11.88C21.9776 11.511 22.3376 11.106 22.6256 10.656C23.6876 10.62 24.5426 9.74698 24.5426 8.67598C24.5426 7.89298 24.0836 7.21798 23.4266 6.89398ZM16.9916 8.56798C16.7216 8.56798 16.5056 8.23498 16.5056 7.82998C16.5056 7.42498 16.7216 7.10098 16.9916 7.10098C17.2616 7.10098 17.4776 7.42498 17.4776 7.82998C17.4776 8.23498 17.2616 8.56798 16.9916 8.56798ZM18.9266 8.56798C18.6656 8.56798 18.4406 8.23498 18.4406 7.82998C18.4406 7.42498 18.6656 7.10098 18.9266 7.10098C19.1966 7.10098 19.4216 7.42498 19.4216 7.82998C19.4216 8.23498 19.1966 8.56798 18.9266 8.56798Z" fill="#F5CA5F"/>
<path d="M11.6818 15.21L11.4928 26.199H5.89476V26.19C5.86776 26.199 5.84076 26.199 5.81376 26.199C4.04976 26.199 3.01476 24.813 3.20376 23.409C3.31176 22.608 3.70776 21.915 4.33776 20.934C4.47276 20.727 4.82376 20.763 5.02176 20.943C5.21076 21.114 5.19276 21.402 5.08476 21.618C4.95876 21.861 4.80576 22.149 4.64376 22.482C4.34676 23.094 4.82376 23.589 5.26476 23.589H5.34576C5.66076 23.589 6.37176 23.139 5.89476 22.329L5.47176 21.591C5.36376 21.375 5.40876 21.105 5.60676 20.943C5.83176 20.772 6.15576 20.808 6.32676 21.033L6.93876 21.762C7.52376 22.464 7.86576 22.986 7.93776 23.823H8.27076L8.35176 22.383C8.49576 19.503 9.76476 16.965 11.6818 15.21Z" fill="#F5CA5F"/>
<path d="M16.9912 8.5671C17.2603 8.5671 17.479 8.2386 17.479 7.8336C17.479 7.4286 17.2612 7.1001 16.9912 7.1001C16.7212 7.1001 16.5034 7.4286 16.5034 7.8336C16.5034 8.2386 16.7212 8.5671 16.9912 8.5671Z" fill="black"/>
<path d="M18.9316 8.5671C19.2007 8.5671 19.4194 8.2386 19.4194 7.8336C19.4194 7.4286 19.2016 7.1001 18.9316 7.1001C18.6616 7.1001 18.4438 7.4286 18.4438 7.8336C18.4438 8.2386 18.6616 8.5671 18.9316 8.5671Z" fill="black"/>
<path d="M14.2182 6.83463C15.6123 6.51423 16.794 5.49183 17.9919 3.71883C19.467 5.21283 20.9529 6.24063 22.4514 6.69513C22.7781 6.79413 23.1048 6.87513 23.4324 6.91743C23.4315 6.91023 23.4279 6.90303 23.427 6.89583C23.4252 6.88593 23.4216 6.87693 23.4198 6.86703C23.3721 6.55203 23.3001 6.24513 23.202 5.95173C23.1984 5.94183 23.1939 5.93193 23.1912 5.92113C22.5531 4.05723 20.9448 2.66313 19.0089 2.29593C19.0008 2.29413 18.9927 2.29233 18.9846 2.29053C18.6804 2.23383 18.3672 2.20773 18.0486 2.20413C18.0297 2.20413 18.0108 2.19873 17.9919 2.19873C17.9829 2.19873 17.9739 2.20143 17.964 2.20143C17.6526 2.20323 17.3475 2.23293 17.0496 2.28603C17.0199 2.29143 16.9911 2.29503 16.9614 2.30043C16.6599 2.35803 16.3665 2.44173 16.0839 2.54703C16.0641 2.55423 16.0443 2.56143 16.0245 2.56863C15.7338 2.68113 15.453 2.81613 15.1875 2.97453C15.1812 2.97813 15.1749 2.98263 15.1686 2.98623C14.3559 3.47583 13.6773 4.17063 13.2066 5.00313C13.1949 5.02383 13.1832 5.04453 13.1715 5.06523C13.0293 5.32353 12.9096 5.59533 12.8106 5.87793C12.7962 5.91753 12.7836 5.95803 12.771 5.99853C12.681 6.27303 12.6126 6.55653 12.5667 6.84903C12.564 6.86883 12.5559 6.88593 12.5532 6.90573C12.555 6.90573 12.5577 6.90573 12.5595 6.90573C12.564 6.90573 12.5676 6.90573 12.5712 6.90573C13.158 6.98043 13.7016 6.95253 14.2182 6.83373V6.83463Z" fill="#EE9530"/>
</svg>
